<svg version="1.1" xmlns="http://www.w3.org/2000/svg" xmlns:xlink="http://www.w3.org/1999/xlink" x="0px" y="0px" viewBox="0 0 100 100" style="enable-background:new 0 0 100 100;" xml:space="preserve">
<g id="wind_sock"></g>
<g id="umbrella"></g>
<g id="temperature"></g>
<g id="snow_rain_night"></g>
<g id="snow_rain_day"></g>
<g id="windy_day"></g>
<g id="windy_night"></g>
<g id="storm_night"></g>
<g id="clear_night"></g>
<g id="snow_night"></g>
<g id="snow_day"></g>
<g id="snow_rain"></g>
<g id="foggy_night"></g>
<g id="cloudy_night"></g>
<g id="rain"></g>
<g id="storm"></g>
<g id="fog"></g>
<g id="wind"></g>
<g id="cloudy"></g>
<g id="sun"></g>
<g id="explorer"></g>
<g id="visio"></g>
<g id="access"></g>
<g id="note"></g>
<g id="outlook"></g>
<g id="pdf"></g>
<g id="power_point"></g>
<g id="exel"></g>
<g id="word"></g>
<g id="office"></g>
<g id="bridge"></g>
<g id="muse"></g>
<g id="flash"></g>
<g id="premiere"></g>
<g id="after_effects"></g>
<g id="dreamwever"></g>
<g id="indesign"></g>
<g id="lightroom"></g>
<g id="illustrator"></g>
<g id="photoshop"></g>
<g id="presentation"></g>
<g id="microphone"></g>
<g id="globe"></g>
<g id="password"></g>
<g id="break_link"></g>
<g id="link"></g>
<g id="tap"></g>
<g id="down"></g>
<g id="top"></g>
<g id="direction"></g>
<g id="move"></g>
<g id="click"></g>
<g id="point"></g>
<g id="like"></g>
<g id="support"></g>
<g id="wifi"></g>
<g id="music"></g>
<g id="more"></g>
<g id="visible"></g>
<g id="error"></g>
<g id="list"></g>
<g id="grid"></g>
<g id="favorite"></g>
<g id="exit"></g>
<g id="power"></g>
<g id="delete"></g>
<g id="msg"></g>
<g id="info"></g>
<g id="help"></g>
<g id="warning"></g>
<g id="cassete"></g>
<g id="piano"></g>
<g id="speaker"></g>
<g id="attention"></g>
<g id="crown"></g>
<g id="prize"></g>
<g id="medal"></g>
<g id="alarm"></g>
<g id="stopper"></g>
<g id="flag"></g>
<g id="snapchat"></g>
<g id="dribbble"></g>
<g id="flickr"></g>
<g id="youtube"></g>
<g id="skype"></g>
<g id="twitter"></g>
<g id="instagram"></g>
<g id="linkedin"></g>
<g id="vimeo"></g>
<g id="tumbler"></g>
<g id="google"></g>
<g id="whatsapp"></g>
<g id="facebook"></g>
<g id="curve"></g>
<g id="paint_bucket"></g>
<g id="roller"></g>
<g id="switch">
	<g>
		<path d="M20.417,72.2v-9.4c0-2.64,2.16-4.8,4.8-4.8h46.4c2.64,0,4.8,2.16,4.8,4.8v9.4c0,2.64-2.16,4.8-4.8,4.8h-46.4
			C22.577,77,20.417,74.84,20.417,72.2z" style="fill:#FDFCEE;"></path>

			<rect x="56.407" y="63.053" transform="matrix(-1.836970e-16 1 -1 -1.836970e-16 132.4385 2.5926)" width="17.031" height="8.925" style="fill:#EDA4DF;"></rect>

			<rect x="47.436" y="63.02" transform="matrix(-1.836970e-16 1 -1 -1.836970e-16 123.4672 11.5639)" width="17.031" height="8.99" style="fill:#D683C4;"></rect>

			<rect x="38.901" y="63.46" transform="matrix(-1.836970e-16 1 -1 -1.836970e-16 114.9164 20.0835)" width="17.031" height="8.08" style="fill:#C96BB8;"></rect>
		<path d="M35.278,73.601l-6.646-6.646c-1.867-1.867-1.867-4.922,0-6.789l32.809-32.809
			c1.867-1.867,4.922-1.867,6.789,0l6.646,6.646c1.867,1.867,1.867,4.922,0,6.789L42.066,73.601
			C40.199,75.468,37.145,75.468,35.278,73.601z" style="fill:#FDFCEE;"></path>

			<rect x="55.329" y="34.326" transform="matrix(0.7071 0.7071 -0.7071 0.7071 45.8592 -33.8951)" width="17.031" height="8.168" style="fill:#F79AB2;"></rect>

			<rect x="48.869" y="40.787" transform="matrix(0.7071 0.7071 -0.7071 0.7071 48.5352 -27.4349)" width="17.031" height="8.165" style="fill:#F27E97;"></rect>

			<rect x="42.475" y="47.123" transform="matrix(0.7071 0.7071 -0.7071 0.7071 51.1678 -21.0478)" width="17.031" height="8.237" style="fill:#E05F81;"></rect>
		<path d="M45.727,70.902c-0.256,0-0.512-0.098-0.707-0.293c-0.391-0.391-0.391-1.023,0-1.414l29.536-29.536
			c1.152-1.152,1.152-3.027,0-4.179l-7.807-7.807c-1.152-1.152-3.027-1.153-4.179,0L46.434,43.808c-0.391,0.391-1.023,0.391-1.414,0
			s-0.391-1.023,0-1.414l16.135-16.135c1.932-1.932,5.076-1.933,7.007,0l7.807,7.807c1.932,1.932,1.932,5.075,0,7.007L46.434,70.609
			C46.239,70.804,45.983,70.902,45.727,70.902z" style="fill:#1F212B;"></path>
		<g>
			<path d="M38.16,77h-9.4c-2.64,0-4.8-2.16-4.8-4.8V25.8c0-2.64,2.16-4.8,4.8-4.8h9.4c2.64,0,4.8,2.16,4.8,4.8v46.4
				C42.961,74.84,40.801,77,38.16,77z" style="fill:#FDFCEE;"></path>
			<path d="M38.16,78h-9.399c-3.198,0-5.8-2.602-5.8-5.8V25.8c0-3.198,2.602-5.8,5.8-5.8h9.399
				c3.198,0,5.8,2.602,5.8,5.8V72.2C43.961,75.398,41.359,78,38.16,78z M28.761,22c-2.096,0-3.8,1.705-3.8,3.8V72.2
				c0,2.096,1.705,3.8,3.8,3.8h9.399c2.096,0,3.8-1.705,3.8-3.8V25.8c0-2.096-1.705-3.8-3.8-3.8H28.761z" style="fill:#1F212B;"></path>
		</g>
		<rect x="24.961" y="28.031" width="17.031" height="7.969" style="fill:#A2A2CC;"></rect>
		<rect x="24.961" y="36.97" width="17.031" height="8.08" style="fill:#7D7DB5;"></rect>
		<rect x="24.945" y="45.96" width="17.031" height="8.08" style="fill:#64659E;"></rect>
		<path d="M67.16,48.727c-0.128,0-0.256-0.049-0.354-0.146L53.745,35.519c-0.195-0.195-0.195-0.512,0-0.707
			s0.512-0.195,0.707,0l13.061,13.062c0.195,0.195,0.195,0.512,0,0.707C67.416,48.678,67.288,48.727,67.16,48.727z" style="fill:#1F212B;"></path>
		<g>
			<path d="M68.203,36.953c-0.128,0-0.256-0.049-0.354-0.146l-8.157-8.157c-0.195-0.195-0.195-0.512,0-0.707
				s0.512-0.195,0.707,0l8.157,8.157c0.195,0.195,0.195,0.512,0,0.707C68.459,36.904,68.331,36.953,68.203,36.953z" style="fill:#1F212B;"></path>
			<path d="M71.116,39.866c-0.128,0-0.256-0.049-0.354-0.146l-1.165-1.165c-0.195-0.195-0.195-0.512,0-0.707
				s0.512-0.195,0.707,0l1.165,1.165c0.195,0.195,0.195,0.512,0,0.707C71.372,39.817,71.244,39.866,71.116,39.866z" style="fill:#1F212B;"></path>
		</g>
		<path d="M60.751,55.136c-0.128,0-0.256-0.049-0.354-0.146L47.337,41.928c-0.195-0.195-0.195-0.512,0-0.707
			s0.512-0.195,0.707,0l13.061,13.062c0.195,0.195,0.195,0.512,0,0.707C61.007,55.087,60.879,55.136,60.751,55.136z" style="fill:#1F212B;"></path>
		<path d="M52.159,59.362c-0.128,0-0.256-0.049-0.354-0.146l-5.942-5.942c-0.195-0.195-0.195-0.512,0-0.707
			s0.512-0.195,0.707,0l5.942,5.942c0.195,0.195,0.195,0.512,0,0.707C52.415,59.313,52.287,59.362,52.159,59.362z" style="fill:#1F212B;"></path>
		<path d="M33.461,73c-1.378,0-2.5-1.122-2.5-2.5s1.122-2.5,2.5-2.5s2.5,1.122,2.5,2.5S34.839,73,33.461,73z M33.461,69
			c-0.827,0-1.5,0.673-1.5,1.5s0.673,1.5,1.5,1.5s1.5-0.673,1.5-1.5S34.288,69,33.461,69z" style="fill:#1F212B;"></path>
		<path d="M42.461,37h-18c-0.276,0-0.5-0.224-0.5-0.5s0.224-0.5,0.5-0.5h18c0.276,0,0.5,0.224,0.5,0.5
			S42.737,37,42.461,37z" style="fill:#1F212B;"></path>
		<g>
			<path d="M35.461,28h-12c-0.276,0-0.5-0.224-0.5-0.5s0.224-0.5,0.5-0.5h12c0.276,0,0.5,0.224,0.5,0.5
				S35.737,28,35.461,28z" style="fill:#1F212B;"></path>
			<path d="M38.898,28h-1.437c-0.276,0-0.5-0.224-0.5-0.5s0.224-0.5,0.5-0.5h1.437c0.276,0,0.5,0.224,0.5,0.5
				S39.174,28,38.898,28z" style="fill:#1F212B;"></path>
			<path d="M42.461,28h-2c-0.276,0-0.5-0.224-0.5-0.5s0.224-0.5,0.5-0.5h2c0.276,0,0.5,0.224,0.5,0.5
				S42.737,28,42.461,28z" style="fill:#1F212B;"></path>
		</g>
		<path d="M42.461,46h-18c-0.276,0-0.5-0.224-0.5-0.5s0.224-0.5,0.5-0.5h18c0.276,0,0.5,0.224,0.5,0.5
			S42.737,46,42.461,46z" style="fill:#1F212B;"></path>
		<path d="M39.461,55h-15c-0.276,0-0.5-0.224-0.5-0.5s0.224-0.5,0.5-0.5h15c0.276,0,0.5,0.224,0.5,0.5
			S39.737,55,39.461,55z" style="fill:#1F212B;"></path>
		<path d="M72.006,78H44.961c-0.552,0-1-0.448-1-1s0.448-1,1-1h27.045c1.629,0,2.955-1.326,2.955-2.955v-11.09
			c0-1.629-1.326-2.955-2.955-2.955h-9.045c-0.552,0-1-0.448-1-1s0.448-1,1-1h9.045c2.732,0,4.955,2.223,4.955,4.955v11.09
			C76.961,75.777,74.738,78,72.006,78z" style="fill:#1F212B;"></path>
		<path d="M60.461,77c-0.276,0-0.5-0.224-0.5-0.5v-12c0-0.276,0.224-0.5,0.5-0.5s0.5,0.224,0.5,0.5v12
			C60.961,76.776,60.737,77,60.461,77z" style="fill:#1F212B;"></path>
		<g>
			<path d="M69.461,73c-0.276,0-0.5-0.224-0.5-0.5v-15c0-0.276,0.224-0.5,0.5-0.5s0.5,0.224,0.5,0.5v15
				C69.961,72.776,69.737,73,69.461,73z" style="fill:#1F212B;"></path>
			<path d="M69.461,77c-0.276,0-0.5-0.224-0.5-0.5v-2c0-0.276,0.224-0.5,0.5-0.5s0.5,0.224,0.5,0.5v2
				C69.961,76.776,69.737,77,69.461,77z" style="fill:#1F212B;"></path>
		</g>
		<path d="M51.461,77c-0.276,0-0.5-0.224-0.5-0.5v-7c0-0.276,0.224-0.5,0.5-0.5s0.5,0.224,0.5,0.5v7
			C51.961,76.776,51.737,77,51.461,77z" style="fill:#1F212B;"></path>
		<path d="M42.461,74c-0.276,0-0.5-0.224-0.5-0.5v-15c0-0.276,0.224-0.5,0.5-0.5s0.5,0.224,0.5,0.5v15
			C42.961,73.776,42.737,74,42.461,74z" style="fill:#1F212B;"></path>
	</g></g>
<g id="scissors"></g>
<g id="picker"></g>
<g id="brush"></g>
</svg>
